HIERARCHY
ROOT Hips
{
	OFFSET 0.000000 0.000000 0.000000
	CHANNELS 6 Xposition Yposition Zposition Zrotation Yrotation Xrotation 
	JOINT LHipJoint
	{
		OFFSET 0.000000 0.000000 0.000000
		CHANNELS 3 Zrotation Yrotation Xrotation
		JOINT LeftUpLeg
		{
			OFFSET 1.363060 -1.794630 0.839290
			CHANNELS 3 Zrotation Yrotation Xrotation
			JOINT LeftLeg
			{
				OFFSET 2.448110 -6.726130 0.000000
				CHANNELS 3 Zrotation Yrotation Xrotation
				JOINT LeftFoot
				{
					OFFSET 2.562200 -7.039590 0.000000
					CHANNELS 3 Zrotation Yrotation Xrotation
					JOINT LeftToeBase
					{
						OFFSET 0.157640 -0.433110 2.322550
						CHANNELS 3 Zrotation Yrotation Xrotation
						End Site
						{
							OFFSET 0.000000 0.000000 0.000000
						}
					}
				}
			}
		}
	}
	JOINT RHipJoint
	{
		OFFSET 0.000000 0.000000 0.000000
		CHANNELS 3 Zrotation Yrotation Xrotation
		JOINT RightUpLeg
		{
			OFFSET -1.305520 -1.794630 0.839290
			CHANNELS 3 Zrotation Yrotation Xrotation
			JOINT RightLeg
			{
				OFFSET -2.542530 -6.985550 0.000000
				CHANNELS 3 Zrotation Yrotation Xrotation
				JOINT RightFoot
				{
					OFFSET -2.568260 -7.056230 0.000000
					CHANNELS 3 Zrotation Yrotation Xrotation
					JOINT RightToeBase
					{
						OFFSET -0.164730 -0.452590 2.363150
						CHANNELS 3 Zrotation Yrotation Xrotation
						End Site
						{
							OFFSET 0.000000 0.000000 0.000000
						}
					}
				}
			}
		}
	}
	JOINT LowerBack
	{
		OFFSET 0.000000 0.000000 0.000000
		CHANNELS 3 Zrotation Yrotation Xrotation
		JOINT Spine
		{
			OFFSET 0.028270 2.035590 -0.193380
			CHANNELS 3 Zrotation Yrotation Xrotation
			JOINT Spine1
			{
				OFFSET 0.056720 2.048850 -0.042750
				CHANNELS 3 Zrotation Yrotation Xrotation
				JOINT Neck
				{
					OFFSET 0.000000 0.000000 0.000000
					CHANNELS 3 Zrotation Yrotation Xrotation
					JOINT Neck1
					{
						OFFSET -0.054170 1.746240 0.172020
						CHANNELS 3 Zrotation Yrotation Xrotation
						JOINT Head
						{
							OFFSET 0.104070 1.761360 -0.123970
							CHANNELS 3 Zrotation Yrotation Xrotation
							End Site
							{
								OFFSET 0.000000 0.000000 0.000000
							}
						}
					}
				}
				JOINT LeftShoulder
				{
					OFFSET 0.000000 0.000000 0.000000
					CHANNELS 3 Zrotation Yrotation Xrotation
					JOINT LeftArm
					{
						OFFSET 3.362410 1.200890 -0.311210
						CHANNELS 3 Zrotation Yrotation Xrotation
						JOINT LeftForeArm
						{
							OFFSET 4.983000 -0.000000 -0.000000
							CHANNELS 3 Zrotation Yrotation Xrotation
							JOINT LeftHand
							{
								OFFSET 3.483560 -0.000000 -0.000000
								CHANNELS 3 Zrotation Yrotation Xrotation
								JOINT LeftFingerBase
								{
									OFFSET 0.000000 0.000000 0.000000
									CHANNELS 3 Zrotation Yrotation Xrotation
									JOINT LeftHandIndex1
									{
										OFFSET 0.715260 -0.000000 -0.000000
										CHANNELS 3 Zrotation Yrotation Xrotation
										End Site
										{
											OFFSET 0.000000 0.000000 0.000000
										}
									}
								}
								JOINT LThumb
								{
									OFFSET 0.000000 0.000000 0.000000
									CHANNELS 3 Zrotation Yrotation Xrotation
									End Site
									{
										OFFSET 0.000000 0.000000 0.000000
									}
								}
							}
						}
					}
				}
				JOINT RightShoulder
				{
					OFFSET 0.000000 0.000000 0.000000
					CHANNELS 3 Zrotation Yrotation Xrotation
					JOINT RightArm
					{
						OFFSET -3.136600 1.374050 -0.404650
						CHANNELS 3 Zrotation Yrotation Xrotation
						JOINT RightForeArm
						{
							OFFSET -5.241900 -0.000000 -0.000000
							CHANNELS 3 Zrotation Yrotation Xrotation
							JOINT RightHand
							{
								OFFSET -3.444170 -0.000000 -0.000000
								CHANNELS 3 Zrotation Yrotation Xrotation
								JOINT RightFingerBase
								{
									OFFSET 0.000000 0.000000 0.000000
									CHANNELS 3 Zrotation Yrotation Xrotation
									JOINT RightHandIndex1
									{
										OFFSET -0.622530 -0.000000 -0.000000
										CHANNELS 3 Zrotation Yrotation Xrotation
										End Site
										{
											OFFSET 0.000000 0.000000 0.000000
										}
									}
								}
								JOINT RThumb
								{
									OFFSET 0.000000 0.000000 0.000000
									CHANNELS 3 Zrotation Yrotation Xrotation
									End Site
									{
										OFFSET 0.000000 0.000000 0.000000
									}
								}
							}
						}
					}
				}
			}
		}
	}
}
MOTION
Frames: 4
Frame Time: 0.008333
-26.548760 17.511383 0.953633 -155.052610 76.648740 -151.114131 14.546615 1.174197 -2.331803 -13.771285 -23.072203 -11.028916 -9.698641 7.080872 13.619900 -3.175132 13.829382 -0.526756 15.240200 -19.447900 -75.959200 -22.947048 -4.238745 -3.601720 55.308669 20.256753 25.050924 15.725735 3.783187 -2.270289 -3.859334 -17.551248 -41.913627 -0.024100 -1.001600 2.753200 10.002608 1.445227 10.914317 0.340041 4.041105 -5.467845 -3.510408 0.618792 -15.506854 -9.384330 -7.092633 -24.819553 3.871105 -4.304800 25.187583 2.865100 -2.305600 25.924600 7.366866 -6.996706 0.483689 -84.295258 13.384950 1.556184 25.070629 -35.900783 -9.651952 -1.099484 1.647683 -2.585751 22.376917 36.305155 13.687600 -7.125000 0.000000 0.000000 -12.414700 66.065900 -6.353600 -8.296165 5.720088 0.010097 50.427013 21.056308 5.370664 -72.093621 56.069305 -43.668979 1.081338 -1.047660 -8.506908 -46.348004 -27.392641 24.733000 7.125000 0.000000 0.000000 -23.298400 -63.194000 10.580600 
-26.547108 17.499270 0.988651 -154.004510 76.134314 -150.317513 14.522571 1.179709 -2.355681 -13.156487 -22.842905 -11.058100 -9.579145 7.018320 13.640357 -3.148760 13.577129 -0.236105 15.260900 -19.452800 -76.021300 -23.085986 -4.214442 -3.573231 56.354208 20.555976 25.380951 15.797324 3.767780 -2.236214 -4.085074 -17.950971 -42.914153 -0.027800 -1.076200 2.958600 10.088572 1.444983 10.909870 0.453016 4.047523 -5.475803 -3.110606 0.656032 -15.591886 -9.670649 -7.235779 -24.563326 3.887088 -4.356249 25.231670 2.926800 -2.365800 25.949100 7.424642 -6.997869 0.487857 -84.734440 13.421279 1.588567 25.284299 -36.141196 -9.771763 -1.092954 1.667407 -2.529572 22.503921 36.365882 13.777400 -7.125000 0.000000 0.000000 -12.297900 66.138400 -6.313500 -8.332879 5.707105 -0.031265 51.477828 21.728389 5.840371 -72.206509 56.118152 -43.673077 1.111356 -1.053654 -9.623479 -45.414431 -28.665360 25.009100 7.125000 0.000000 0.000000 -22.234800 -64.387400 10.691100 
-26.537087 17.491232 1.036773 -155.921365 75.998436 -152.086868 14.535309 1.172128 -2.344919 -13.308584 -22.945133 -11.269905 -9.627837 7.085657 13.615101 -3.046446 13.292946 -0.541010 15.280800 -19.457500 -76.081200 -23.072922 -4.072532 -3.548366 56.733671 21.574255 25.988428 15.723401 3.924719 -2.453174 -4.741238 -16.910833 -44.783608 -0.222300 -3.035100 8.376500 9.063721 1.511981 10.465531 0.530971 3.932645 -5.491826 -2.334809 0.782915 -15.524435 -10.024168 -7.387368 -24.364032 4.024507 -4.397966 25.247913 3.103300 -2.429900 25.987600 7.483881 -6.931947 0.484415 -85.213640 13.373151 1.444289 25.428821 -36.343631 -9.879679 -1.083953 1.692325 -2.299176 22.627128 36.656421 13.943700 -7.125000 0.000000 0.000000 -12.384000 66.430600 -6.441300 -8.400217 5.736804 -0.065253 52.589168 22.610295 6.075846 -71.941285 56.134403 -43.361801 1.136983 -1.055430 -11.503221 -44.694077 -29.900227 25.349300 7.125000 0.000000 0.000000 -21.378100 -65.565800 10.842400 
-26.575519 17.489690 0.995698 -159.908118 76.050965 -155.659726 14.706645 1.182300 -2.195873 -14.640567 -23.823931 -11.581851 -9.896811 7.369075 13.640697 -2.853641 13.038981 -1.398492 15.270100 -19.454900 -76.048900 -22.788613 -4.024819 -3.751628 54.472364 20.102309 24.959671 15.669767 3.900200 -2.492763 -4.068678 -17.486002 -43.012106 -0.084000 -1.869300 5.144600 8.621911 1.541508 10.180048 0.430447 3.900071 -5.543544 -2.498147 0.814271 -15.561104 -10.172372 -7.538474 -24.374903 3.953100 -4.554933 25.284785 3.081900 -2.516500 26.097700 7.501504 -6.882558 0.472822 -85.749936 13.167707 1.117628 25.548840 -36.449140 -9.926229 -1.094306 1.707072 -1.832498 21.848712 36.911324 13.551900 -7.125000 0.000000 0.000000 -13.558300 66.464400 -7.071900 -8.456291 5.760773 -0.101155 53.490882 23.365608 6.051834 -72.036961 56.143613 -43.403118 1.173920 -1.049852 -13.897776 -43.731227 -30.901630 25.302200 7.125000 0.000000 0.000000 -19.980200 -66.397200 10.487600 
